<?xml version="1.0" standalone="no"?><!DOCTYPE svg PUBLIC "-//W3C//DTD SVG 1.1//EN" "http://www.w3.org/Graphics/SVG/1.1/DTD/svg11.dtd"><svg t="1678186392752" class="icon" viewBox="0 0 1024 1024" version="1.1" xmlns="http://www.w3.org/2000/svg" p-id="2927" xmlns:xlink="http://www.w3.org/1999/xlink" width="200" height="200"><path d="M271.2 583.2C164.8 292 3.2 84 139.2 35.2c139.2-50.4 145.6 213.6 252 504" fill="#FFFFFF" p-id="2928"></path><path d="M252 589.6c-31.2-84.8-66.4-162.4-98.4-232C92.8 225.6 48.8 129.6 75.2 67.2c9.6-24 29.6-40.8 57.6-51.2 28.8-10.4 56-9.6 78.4 2.4C271.2 49.6 298.4 150.4 336 289.6c20 73.6 42.4 157.6 73.6 243.2l-37.6 13.6c-32-87.2-54.4-172-74.4-246.4-32-120-60-223.2-104.8-246.4-12.8-7.2-28-7.2-46.4 0-17.6 6.4-28.8 16-34.4 28.8-19.2 46.4 25.6 144.8 78.4 259.2 32 69.6 68 148 99.2 234.4l-37.6 13.6z" p-id="2929"></path><path d="M299.2 566.4C206.4 311.2 48.8 98.4 149.6 61.6 252.8 24 266.4 289.6 359.2 544.8" fill="#F3B5A7" p-id="2930"></path><path d="M621.6 538.4C727.2 248 736.8-15.2 872.8 34.4c139.2 50.4-25.6 257.6-131.2 548" fill="#FFFFFF" p-id="2931"></path><path d="M760.8 588.8l-37.6-13.6C755.2 488 792 408.8 824 338.4c52-112.8 97.6-209.6 77.6-256-5.6-13.6-16.8-23.2-36-29.6-17.6-6.4-32-6.4-44.8 0-44.8 23.2-73.6 127.2-106.4 248.8-20 73.6-43.2 157.6-74.4 244l-37.6-13.6c31.2-84.8 53.6-167.2 73.6-240.8 38.4-140.8 66.4-242.4 127.2-273.6 22.4-12 48.8-12.8 76.8-2.4 28.8 10.4 48.8 28 59.2 52 26.4 62.4-17.6 156.8-78.4 288-32.8 69.6-69.6 148-100 233.6z" p-id="2932"></path><path d="M653.6 544C746.4 288.8 762.4 24.8 863.2 61.6c103.2 37.6-56.8 248.8-149.6 504.8" fill="#F3B5A7" p-id="2933"></path><path d="M498.4 690.4m-304 0a304 304 0 1 0 608 0 304 304 0 1 0-608 0Z" fill="#FFFFFF" p-id="2934"></path><path d="M498.4 1014.4c-178.4 0-324-145.6-324-324S320 366.4 498.4 366.4s324 145.6 324 324-145.6 324-324 324z m0-608c-156.8 0-284 127.2-284 284s127.2 284 284 284 284-127.2 284-284-127.2-284-284-284z" p-id="2935"></path><path d="M444.8 735.2c12.8-28 114.4-29.6 122.4 0 4.8 16-29.6 42.4-49.6 56.8-8.8 5.6-20 5.6-28-0.8-19.2-14.4-51.2-41.6-44.8-56z" p-id="2936"></path><path d="M438.4 851.2c-12 0-24.8-2.4-39.2-7.2-6.4-2.4-9.6-8.8-7.2-15.2s8.8-9.6 15.2-7.2c22.4 8 40.8 8 55.2 0 22.4-12.8 28-42.4 28-42.4 0.8-6.4 7.2-11.2 13.6-9.6 6.4 0.8 11.2 7.2 9.6 13.6 0 1.6-8 40.8-40 59.2-8.8 5.6-21.6 8.8-35.2 8.8z" p-id="2937"></path><path d="M572.8 851.2c-13.6 0-25.6-3.2-36.8-9.6-32-18.4-39.2-57.6-40-59.2-0.8-6.4 3.2-12.8 9.6-13.6s12.8 3.2 13.6 9.6c0 0 5.6 29.6 28 42.4 14.4 8 32.8 8 55.2 0 6.4-2.4 12.8 0.8 15.2 7.2s-0.8 12.8-7.2 15.2c-12.8 5.6-25.6 8-37.6 8z" p-id="2938"></path><path d="M552.8 857.6c-8.8-7.2-20.8-12.8-34.4-15.2 0 0-11.2-0.8-14.4-0.8-4 0-14.4 0.8-14.4 0.8-16 2.4-29.6 8.8-37.6 18.4 8 19.2 24.8 46.4 52 45.6 28-0.8 42.4-29.6 48.8-48.8z" fill="#EC6968" p-id="2939"></path><path d="M501.6 917.6c-49.6 0-67.2-69.6-68-72.8-1.6-6.4 2.4-12 8-13.6 6.4-1.6 12 2.4 13.6 8 0 0.8 14.4 55.2 46.4 55.2h0.8c32-0.8 42.4-54.4 42.4-54.4 0.8-6.4 7.2-10.4 12.8-8.8 6.4 0.8 10.4 7.2 8.8 12.8-0.8 3.2-12.8 72-64.8 73.6 1.6 0 0.8 0 0 0z" p-id="2940"></path><path d="M621.6 730.4a56 24 0 1 0 112 0 56 24 0 1 0-112 0Z" fill="#F3B5A7" p-id="2941"></path><path d="M261.6 730.4a56 24 0 1 0 112 0 56 24 0 1 0-112 0Z" fill="#F3B5A7" p-id="2942"></path><path d="M379.2 621.6m-40 0a40 40 0 1 0 80 0 40 40 0 1 0-80 0Z" p-id="2943"></path><path d="M619.2 621.6m-40 0a40 40 0 1 0 80 0 40 40 0 1 0-80 0Z" p-id="2944"></path><path d="M347.2 604.8c-5.6 0-32-0.8-37.6-11.2-0.8-1.6-0.8-4 1.6-5.6 1.6-0.8 4-0.8 5.6 1.6 2.4 4 17.6 7.2 31.2 7.2 2.4 0 4 1.6 4 4s-2.4 4-4.8 4zM358.4 594.4c-4-0.8-30.4-8-32-24 0-2.4 1.6-4 3.2-4.8 2.4 0 4 1.6 4.8 3.2 0.8 8.8 19.2 15.2 24.8 16.8 2.4 0.8 3.2 2.4 3.2 4.8-0.8 3.2-2.4 4-4 4zM644 604.8c-2.4 0-4-1.6-4-4s1.6-4 4-4c12.8 0 28.8-2.4 31.2-7.2 0.8-1.6 3.2-2.4 5.6-1.6 1.6 0.8 2.4 3.2 1.6 5.6-6.4 10.4-33.6 11.2-38.4 11.2zM632.8 594.4c-1.6 0-3.2-0.8-4-3.2s0.8-4 3.2-4.8c6.4-1.6 24-8 24.8-16.8 0-2.4 2.4-4 4.8-3.2 2.4 0 4 2.4 3.2 4.8-1.6 16-28 23.2-32 23.2 0.8 0 0 0 0 0z" p-id="2945"></path><path d="M401.6 622.4m-8 0a8 8 0 1 0 16 0 8 8 0 1 0-16 0Z" fill="#FFFFFF" p-id="2946"></path><path d="M393.6 614.4m-8 0a8 8 0 1 0 16 0 8 8 0 1 0-16 0Z" fill="#FFFFFF" p-id="2947"></path><path d="M609.6 622.4m-8 0a8 8 0 1 0 16 0 8 8 0 1 0-16 0Z" fill="#FFFFFF" p-id="2948"></path><path d="M601.6 614.4m-8 0a8 8 0 1 0 16 0 8 8 0 1 0-16 0Z" fill="#FFFFFF" p-id="2949"></path></svg>